<svg width="62" height="68" viewBox="0 0 62 68" fill="none" xmlns="http://www.w3.org/2000/svg">
<g filter="url(#filter0_d_8_16)">
<path d="M31 0.916626L4.75 12.5833V30.0833C4.75 46.2708 15.95 61.4083 31 65.0833C46.05 61.4083 57.25 46.2708 57.25 30.0833V12.5833L31 0.916626ZM31 23.9291C35.6667 23.9291 39.4292 27.6916 39.4292 32.3583C39.4292 37.025 35.6667 40.7875 31 40.7875C26.3333 40.7875 22.5708 36.9958 22.5708 32.3583C22.5708 27.7208 26.3625 23.9291 31 23.9291ZM31 15.5L35.025 21.3333C33.8 20.8083 32.4583 20.5458 31 20.5458C29.5417 20.5458 28.2292 20.8083 26.975 21.3333L31 15.5ZM16.4167 23.9291L23.4167 23.3458C22.425 24.25 21.4917 25.2416 20.7917 26.4666C20.0625 27.6916 19.625 28.975 19.3333 30.3166L16.4167 23.9291ZM16.4167 40.7875L19.4208 34.4583C19.6542 35.7125 20.1208 37.025 20.7917 38.25C21.5208 39.5041 22.425 40.5541 23.4167 41.4L16.4167 40.7875ZM45.5833 23.9291L42.6667 30.3166C42.375 28.975 41.9083 27.6916 41.2083 26.4666C40.5083 25.2416 39.6042 24.25 38.5833 23.3166L45.5833 23.9291ZM45.5833 40.7875L38.5833 41.3708C39.575 40.525 40.4792 39.475 41.2083 38.25C41.9083 37.025 42.3458 35.7125 42.5792 34.4583L45.5833 40.7875ZM31 49.1875L26.9458 43.4125C28.2 43.85 29.5417 44.1416 31 44.1416C32.4583 44.1416 33.7708 43.85 34.9958 43.4125L31 49.1875Z" fill="url(#paint0_linear_8_16)"/>
</g>
<defs>
<filter id="filter0_d_8_16" x="0.75" y="0.916626" width="60.5" height="72.1666" filterUnits="userSpaceOnUse" color-interpolation-filters="sRGB">
<feFlood flood-opacity="0" result="BackgroundImageFix"/>
<feColorMatrix in="SourceAlpha" type="matrix" values="0 0 0 0 0 0 0 0 0 0 0 0 0 0 0 0 0 0 127 0" result="hardAlpha"/>
<feOffset dy="4"/>
<feGaussianBlur stdDeviation="2"/>
<feComposite in2="hardAlpha" operator="out"/>
<feColorMatrix type="matrix" values="0 0 0 0 0 0 0 0 0 0 0 0 0 0 0 0 0 0 0.25 0"/>
<feBlend mode="normal" in2="BackgroundImageFix" result="effect1_dropShadow_8_16"/>
<feBlend mode="normal" in="SourceGraphic" in2="effect1_dropShadow_8_16" result="shape"/>
</filter>
<linearGradient id="paint0_linear_8_16" x1="-56" y1="-28" x2="116.5" y2="88" gradientUnits="userSpaceOnUse">
<stop offset="0.301297" stop-color="#AD00FF"/>
<stop offset="0.738539" stop-color="#11D4FF"/>
</linearGradient>
</defs>
</svg>
